<svg width="24" height="25" viewBox="0 0 24 25" fill="none" xmlns="http://www.w3.org/2000/svg">
<path d="M20 10.057V3.5H18V5.5H6V3.5H4V10.057C2.81 10.75 2 12.025 2 13.5V17.5C2 17.7652 2.10536 18.0196 2.29289 18.2071C2.48043 18.3946 2.73478 18.5 3 18.5H4V22.5H6V18.5H18V22.5H20V18.5H21C21.2652 18.5 21.5196 18.3946 21.7071 18.2071C21.8946 18.0196 22 17.7652 22 17.5V13.5C22 12.025 21.189 10.75 20 10.057ZM18 7.5V9.5H13V7.5H18ZM6 7.5H11V9.5H6V7.5ZM20 16.5H4V13.5C4 12.397 4.897 11.5 6 11.5H18C19.103 11.5 20 12.397 20 13.5V16.5Z" fill="#70707B"/>
</svg>
