<svg width="20" height="20" viewBox="0 0 20 21" fill="none" xmlns="http://www.w3.org/2000/svg">
<path d="M10 2.375C8.39303 2.375 6.82214 2.85152 5.486 3.74431C4.14985 4.6371 3.10844 5.90605 2.49348 7.3907C1.87852 8.87535 1.71762 10.509 2.03112 12.0851C2.34463 13.6612 3.11846 15.1089 4.25476 16.2452C5.39106 17.3815 6.8388 18.1554 8.4149 18.4689C9.99099 18.7824 11.6247 18.6215 13.1093 18.0065C14.594 17.3916 15.8629 16.3502 16.7557 15.014C17.6485 13.6779 18.125 12.107 18.125 10.5C18.1227 8.34581 17.266 6.28051 15.7427 4.75727C14.2195 3.23403 12.1542 2.37727 10 2.375ZM10 17.375C8.64026 17.375 7.31105 16.9718 6.18046 16.2164C5.04987 15.4609 4.16868 14.3872 3.64833 13.1309C3.12798 11.8747 2.99183 10.4924 3.2571 9.15875C3.52238 7.82513 4.17716 6.60013 5.13864 5.63864C6.10013 4.67716 7.32514 4.02237 8.65876 3.7571C9.99238 3.49183 11.3747 3.62798 12.631 4.14833C13.8872 4.66868 14.9609 5.54987 15.7164 6.68045C16.4718 7.81104 16.875 9.14025 16.875 10.5C16.8729 12.3227 16.1479 14.0702 14.8591 15.3591C13.5702 16.6479 11.8227 17.3729 10 17.375ZM15 10.5C15 10.6658 14.9342 10.8247 14.8169 10.9419C14.6997 11.0592 14.5408 11.125 14.375 11.125H10C9.83424 11.125 9.67527 11.0592 9.55806 10.9419C9.44085 10.8247 9.375 10.6658 9.375 10.5V6.125C9.375 5.95924 9.44085 5.80027 9.55806 5.68306C9.67527 5.56585 9.83424 5.5 10 5.5C10.1658 5.5 10.3247 5.56585 10.4419 5.68306C10.5592 5.80027 10.625 5.95924 10.625 6.125V9.875H14.375C14.5408 9.875 14.6997 9.94085 14.8169 10.0581C14.9342 10.1753 15 10.3342 15 10.5Z" fill="#70707B"/>
</svg>
